<?xml version="1.0" encoding="UTF-8"?>
<svg width="111px" height="27px" viewBox="0 0 111 27" version="1.1" xmlns="http://www.w3.org/2000/svg" xmlns:xlink="http://www.w3.org/1999/xlink">
    <!-- Generator: Sketch 58 (84663) - https://sketch.com -->
    <title>Group 3</title>
    <desc>Created with Sketch.</desc>
    <defs>
        <linearGradient x1="0%" y1="0%" x2="101.999998%" y2="100.999999%" id="linearGradient-1">
            <stop stop-color="#3023AE" offset="0%"></stop>
            <stop stop-color="#C86DD7" offset="100%"></stop>
        </linearGradient>
    </defs>
    <g id="Welcome" stroke="none" stroke-width="1" fill="none" fill-rule="evenodd">
        <g id="Desktop-HD-Copy" transform="translate(-767.000000, -507.000000)" fill="url(#linearGradient-1)" fill-rule="nonzero">
            <g id="Group-3" transform="translate(767.000000, 507.000000)">
                <g id="currency-dollar" opacity="0.1" transform="translate(84.000000, 0.000000)">
                    <path d="M13.5,27 C6.04415588,27 0,20.9558441 0,13.5 C0,6.04415588 6.04415588,0 13.5,0 C20.9558441,0 27,6.04415588 27,13.5 C27,20.9558441 20.9558441,27 13.5,27 Z M14.85,20.25 L16.2,20.25 C18.4367532,20.25 20.25,18.4367532 20.25,16.2 C20.25,13.9632468 18.4367532,12.15 16.2,12.15 L10.7865,12.15 C10.0409156,12.15 9.4365,11.5455844 9.4365,10.8 C9.4365,10.0544156 10.0409156,9.45 10.7865,9.45 L18.9,9.45 L18.9,6.75 L14.85,6.75 L14.85,4.05 L12.15,4.05 L12.15,6.75 L10.8,6.75 C8.56324676,6.75 6.75,8.56324676 6.75,10.8 C6.75,13.0367532 8.56324676,14.85 10.8,14.85 L16.2,14.85 C16.9455844,14.85 17.55,15.4544156 17.55,16.2 C17.55,16.9455844 16.9455844,17.55 16.2,17.55 L8.1,17.55 L8.1,20.25 L12.15,20.25 L12.15,22.95 L14.85,22.95 L14.85,20.25 Z" id="Shape"></path>
                </g>
                <g id="currency-dollar" opacity="0.3" transform="translate(56.000000, 0.000000)">
                    <path d="M13.5,27 C6.04415588,27 0,20.9558441 0,13.5 C0,6.04415588 6.04415588,0 13.5,0 C20.9558441,0 27,6.04415588 27,13.5 C27,20.9558441 20.9558441,27 13.5,27 Z M14.85,20.25 L16.2,20.25 C18.4367532,20.25 20.25,18.4367532 20.25,16.2 C20.25,13.9632468 18.4367532,12.15 16.2,12.15 L10.7865,12.15 C10.0409156,12.15 9.4365,11.5455844 9.4365,10.8 C9.4365,10.0544156 10.0409156,9.45 10.7865,9.45 L18.9,9.45 L18.9,6.75 L14.85,6.75 L14.85,4.05 L12.15,4.05 L12.15,6.75 L10.8,6.75 C8.56324676,6.75 6.75,8.56324676 6.75,10.8 C6.75,13.0367532 8.56324676,14.85 10.8,14.85 L16.2,14.85 C16.9455844,14.85 17.55,15.4544156 17.55,16.2 C17.55,16.9455844 16.9455844,17.55 16.2,17.55 L8.1,17.55 L8.1,20.25 L12.15,20.25 L12.15,22.95 L14.85,22.95 L14.85,20.25 Z" id="Shape"></path>
                </g>
                <g id="currency-dollar" opacity="0.5" transform="translate(28.000000, 0.000000)">
                    <path d="M13.5,27 C6.04415588,27 0,20.9558441 0,13.5 C0,6.04415588 6.04415588,0 13.5,0 C20.9558441,0 27,6.04415588 27,13.5 C27,20.9558441 20.9558441,27 13.5,27 Z M14.85,20.25 L16.2,20.25 C18.4367532,20.25 20.25,18.4367532 20.25,16.2 C20.25,13.9632468 18.4367532,12.15 16.2,12.15 L10.7865,12.15 C10.0409156,12.15 9.4365,11.5455844 9.4365,10.8 C9.4365,10.0544156 10.0409156,9.45 10.7865,9.45 L18.9,9.45 L18.9,6.75 L14.85,6.75 L14.85,4.05 L12.15,4.05 L12.15,6.75 L10.8,6.75 C8.56324676,6.75 6.75,8.56324676 6.75,10.8 C6.75,13.0367532 8.56324676,14.85 10.8,14.85 L16.2,14.85 C16.9455844,14.85 17.55,15.4544156 17.55,16.2 C17.55,16.9455844 16.9455844,17.55 16.2,17.55 L8.1,17.55 L8.1,20.25 L12.15,20.25 L12.15,22.95 L14.85,22.95 L14.85,20.25 Z" id="Shape"></path>
                </g>
                <g id="currency-dollar">
                    <path d="M13.5,27 C6.04415588,27 0,20.9558441 0,13.5 C0,6.04415588 6.04415588,0 13.5,0 C20.9558441,0 27,6.04415588 27,13.5 C27,20.9558441 20.9558441,27 13.5,27 Z M14.85,20.25 L16.2,20.25 C18.4367532,20.25 20.25,18.4367532 20.25,16.2 C20.25,13.9632468 18.4367532,12.15 16.2,12.15 L10.7865,12.15 C10.0409156,12.15 9.4365,11.5455844 9.4365,10.8 C9.4365,10.0544156 10.0409156,9.45 10.7865,9.45 L18.9,9.45 L18.9,6.75 L14.85,6.75 L14.85,4.05 L12.15,4.05 L12.15,6.75 L10.8,6.75 C8.56324676,6.75 6.75,8.56324676 6.75,10.8 C6.75,13.0367532 8.56324676,14.85 10.8,14.85 L16.2,14.85 C16.9455844,14.85 17.55,15.4544156 17.55,16.2 C17.55,16.9455844 16.9455844,17.55 16.2,17.55 L8.1,17.55 L8.1,20.25 L12.15,20.25 L12.15,22.95 L14.85,22.95 L14.85,20.25 Z" id="Shape"></path>
                </g>
            </g>
        </g>
    </g>
</svg>