<?xml version="1.0" encoding="UTF-8"?>
<svg width="216px" height="194px" viewBox="0 0 216 194" version="1.1" xmlns="http://www.w3.org/2000/svg" xmlns:xlink="http://www.w3.org/1999/xlink">
    <!-- Generator: Sketch 58 (84663) - https://sketch.com -->
    <title>e86db923d0285907a9790ad99bf8186d</title>
    <desc>Created with Sketch.</desc>
    <defs>
        <linearGradient x1="50.0070952%" y1="0%" x2="50.0070952%" y2="200%" id="linearGradient-1">
            <stop stop-color="#666665" offset="0%"></stop>
            <stop stop-color="#636362" offset="40%"></stop>
            <stop stop-color="#595958" offset="72%"></stop>
            <stop stop-color="#494948" offset="100%"></stop>
        </linearGradient>
        <linearGradient x1="50.0070952%" y1="-100%" x2="50.0070952%" y2="99.9840739%" id="linearGradient-2">
            <stop stop-color="#666665" offset="0%"></stop>
            <stop stop-color="#636362" offset="40%"></stop>
            <stop stop-color="#595958" offset="72%"></stop>
            <stop stop-color="#494948" offset="100%"></stop>
        </linearGradient>
        <linearGradient x1="0%" y1="0%" x2="101.999998%" y2="100.999999%" id="linearGradient-3">
            <stop stop-color="#3023AE" offset="0%"></stop>
            <stop stop-color="#C86DD7" offset="100%"></stop>
        </linearGradient>
        <linearGradient x1="0%" y1="17.1068785%" x2="101.999998%" y2="83.5509833%" id="linearGradient-4">
            <stop stop-color="#3023AE" offset="0%"></stop>
            <stop stop-color="#C86DD7" offset="100%"></stop>
        </linearGradient>
    </defs>
    <g id="Welcome" stroke="none" stroke-width="1" fill="none" fill-rule="evenodd">
        <g id="Desktop-HD-Copy" transform="translate(-232.000000, -405.000000)">
            <g id="e86db923d0285907a9790ad99bf8186d" transform="translate(232.000000, 405.000000)">
                <g id="Group" transform="translate(0.000000, 89.000000)" fill="#FBFAF9">
                    <ellipse id="Oval" cx="2.84" cy="2.78" rx="1.94" ry="1.83"></ellipse>
                    <ellipse id="Oval" cx="2.84" cy="13.77" rx="1.94" ry="1.83"></ellipse>
                    <ellipse id="Oval" cx="2.84" cy="24.75" rx="1.94" ry="1.83"></ellipse>
                    <ellipse id="Oval" cx="26.15" cy="2.78" rx="1.94" ry="1.83"></ellipse>
                    <ellipse id="Oval" cx="26.15" cy="13.77" rx="1.94" ry="1.83"></ellipse>
                    <ellipse id="Oval" cx="26.15" cy="24.75" rx="1.94" ry="1.83"></ellipse>
                    <ellipse id="Oval" cx="14.49" cy="2.78" rx="1.94" ry="1.83"></ellipse>
                    <ellipse id="Oval" cx="14.49" cy="13.77" rx="1.94" ry="1.83"></ellipse>
                    <ellipse id="Oval" cx="14.49" cy="24.75" rx="1.94" ry="1.83"></ellipse>
                    <ellipse id="Oval" cx="49.45" cy="2.78" rx="1.94" ry="1.83"></ellipse>
                    <ellipse id="Oval" cx="49.45" cy="13.77" rx="1.94" ry="1.83"></ellipse>
                    <ellipse id="Oval" cx="49.45" cy="24.75" rx="1.94" ry="1.83"></ellipse>
                    <ellipse id="Oval" cx="37.8" cy="2.78" rx="1.94" ry="1.83"></ellipse>
                    <ellipse id="Oval" cx="37.8" cy="13.77" rx="1.94" ry="1.83"></ellipse>
                    <ellipse id="Oval" cx="37.8" cy="24.75" rx="1.94" ry="1.83"></ellipse>
                    <ellipse id="Oval" cx="72.75" cy="2.78" rx="1.94" ry="1.83"></ellipse>
                    <ellipse id="Oval" cx="72.75" cy="13.77" rx="1.94" ry="1.83"></ellipse>
                    <ellipse id="Oval" cx="72.75" cy="24.75" rx="1.94" ry="1.83"></ellipse>
                    <ellipse id="Oval" cx="61.1" cy="2.78" rx="1.94" ry="1.83"></ellipse>
                    <ellipse id="Oval" cx="61.1" cy="13.77" rx="1.94" ry="1.83"></ellipse>
                    <ellipse id="Oval" cx="61.1" cy="24.75" rx="1.94" ry="1.83"></ellipse>
                    <ellipse id="Oval" cx="96.06" cy="2.78" rx="1.94" ry="1.83"></ellipse>
                    <ellipse id="Oval" cx="96.06" cy="13.77" rx="1.94" ry="1.83"></ellipse>
                    <ellipse id="Oval" cx="96.06" cy="24.75" rx="1.94" ry="1.83"></ellipse>
                    <ellipse id="Oval" cx="84.4" cy="2.78" rx="1.94" ry="1.83"></ellipse>
                    <ellipse id="Oval" cx="84.4" cy="13.77" rx="1.94" ry="1.83"></ellipse>
                    <ellipse id="Oval" cx="84.4" cy="24.75" rx="1.94" ry="1.83"></ellipse>
                    <ellipse id="Oval" cx="119.36" cy="2.78" rx="1.94" ry="1.83"></ellipse>
                    <ellipse id="Oval" cx="119.36" cy="13.77" rx="1.94" ry="1.83"></ellipse>
                    <ellipse id="Oval" cx="119.36" cy="24.75" rx="1.94" ry="1.83"></ellipse>
                    <ellipse id="Oval" cx="107.71" cy="2.78" rx="1.94" ry="1.83"></ellipse>
                    <ellipse id="Oval" cx="107.71" cy="13.77" rx="1.94" ry="1.83"></ellipse>
                    <ellipse id="Oval" cx="107.71" cy="24.75" rx="1.94" ry="1.83"></ellipse>
                    <ellipse id="Oval" cx="142.66" cy="2.78" rx="1.94" ry="1.83"></ellipse>
                    <ellipse id="Oval" cx="142.66" cy="13.77" rx="1.94" ry="1.83"></ellipse>
                    <ellipse id="Oval" cx="142.66" cy="24.75" rx="1.94" ry="1.83"></ellipse>
                    <ellipse id="Oval" cx="131.01" cy="2.78" rx="1.94" ry="1.83"></ellipse>
                    <ellipse id="Oval" cx="131.01" cy="13.77" rx="1.94" ry="1.83"></ellipse>
                    <ellipse id="Oval" cx="131.01" cy="24.75" rx="1.94" ry="1.83"></ellipse>
                    <ellipse id="Oval" cx="165.97" cy="2.78" rx="1.94" ry="1.83"></ellipse>
                    <ellipse id="Oval" cx="165.97" cy="13.77" rx="1.94" ry="1.83"></ellipse>
                    <ellipse id="Oval" cx="165.97" cy="24.75" rx="1.94" ry="1.83"></ellipse>
                    <ellipse id="Oval" cx="154.32" cy="2.78" rx="1.94" ry="1.83"></ellipse>
                    <ellipse id="Oval" cx="154.32" cy="13.77" rx="1.94" ry="1.83"></ellipse>
                    <ellipse id="Oval" cx="154.32" cy="24.75" rx="1.94" ry="1.83"></ellipse>
                </g>
                <rect id="Rectangle" fill="url(#linearGradient-1)" x="40.88" y="32.29" width="140.94" height="62.79"></rect>
                <path d="M174.14,40 L174.14,87.41 L48.57,87.41 L48.57,40 L174.14,40 L174.14,40 Z M189.52,24.62 L33.19,24.62 L33.19,102.78 L189.52,102.78 L189.52,24.61 L189.52,24.62 Z" id="Shape" fill="#494948" fill-rule="nonzero"></path>
                <rect id="Rectangle" fill="url(#linearGradient-2)" x="40.88" y="95.08" width="140.94" height="62.79"></rect>
                <path d="M174.14,102.77 L174.14,150.18 L48.57,150.18 L48.57,102.77 L174.14,102.77 L174.14,102.77 Z M189.52,87.39 L33.19,87.39 L33.19,165.55 L189.52,165.55 L189.52,87.39 L189.52,87.39 Z" id="Shape" fill="#494948" fill-rule="nonzero"></path>
                <rect id="Rectangle" fill="#999999" x="102.71" y="61.13" width="17.3" height="5.13"></rect>
                <rect id="Rectangle" fill="#999999" x="102.71" y="123.91" width="17.3" height="5.13"></rect>
                <path d="M72.87,193.1 C59.8223957,193.0977 48.5656625,183.943085 45.9041299,171.169823 C43.2425973,158.396561 49.9062335,145.507924 61.8670868,140.294674 C73.8279402,135.081425 87.8055542,138.97338 95.3509154,149.61798 C102.896277,160.26258 101.939948,174.740371 93.06,184.3 C87.8419288,189.906805 80.5292752,193.094094 72.87,193.1 L72.87,193.1 Z M72.87,140.63 C59.1083671,140.635522 47.9563197,151.795031 47.96,165.556664 C47.9636821,179.318297 59.1216981,190.471838 72.883332,190.469998 C86.6449658,190.468158 97.8,179.311634 97.8,165.55 C97.756058,151.801406 86.6186105,140.668426 72.87,140.63 L72.87,140.63 Z" id="Shape" fill="url(#linearGradient-3)" fill-rule="nonzero"></path>
                <rect id="Rectangle" fill="#FBFAF9" x="61.34" y="154.02" width="5.76" height="23.06"></rect>
                <rect id="Rectangle" fill="#FBFAF9" x="69.99" y="163.63" width="5.76" height="13.45"></rect>
                <rect id="Rectangle" fill="#FBFAF9" x="78.64" y="171.32" width="5.77" height="5.77"></rect>
                <g id="Group" transform="translate(156.000000, 0.000000)">
                    <path d="M59.1,59.37 L0.64,59.37 L0.64,0.9 L59.1,0.9 L59.1,59.37 Z M1.92,58.09 L57.82,58.09 L57.82,2.18 L1.92,2.18 L1.92,58.09 Z" id="Shape" fill="#FBFAF9" fill-rule="nonzero"></path>
                    <g transform="translate(10.000000, 11.000000)">
                        <circle id="Oval" fill="#FBFAF9" cx="19.87" cy="19.14" r="18.9"></circle>
                        <path d="M29.16,13.88 L29.16,26.67 L10.58,26.67 L10.58,12.25 C10.58,11.8910149 10.8710149,11.6 11.23,11.6 L16.29,11.6 C16.5779615,11.6020311 16.830262,11.7932911 16.91,12.07 L17.26,13.24 L28.51,13.24 C28.8651158,13.239958 29.1545367,13.5249262 29.16,13.88 Z" id="Path" fill="url(#linearGradient-4)"></path>
                    </g>
                </g>
            </g>
        </g>
    </g>
</svg>