<svg width="47" height="40" viewBox="0 0 47 40" fill="none" xmlns="http://www.w3.org/2000/svg">
<path d="M4.5 4V21" stroke="#4259F7" stroke-width="3" stroke-linecap="round" stroke-linejoin="round"/>
<path d="M5.5 4L11.5 26.5" stroke="#4259F7" stroke-width="1.2" stroke-linecap="round" stroke-linejoin="round"/>
<path d="M11.5 1.5V26.5" stroke="#4259F7" stroke-width="3" stroke-linecap="round" stroke-linejoin="round"/>
<path d="M12.5 1.5L15.5 31" stroke="#4259F7" stroke-width="1.2" stroke-linecap="round" stroke-linejoin="round"/>
<path d="M18.5 2.5L16.5 31" stroke="#4259F7" stroke-width="3" stroke-linecap="round" stroke-linejoin="round"/>
<path d="M19.5 2.5L23.5 38.5" stroke="#4259F7" stroke-width="1.2" stroke-linecap="round" stroke-linejoin="round"/>
<path d="M24 10.5V38" stroke="#4259F7" stroke-width="3" stroke-linecap="round" stroke-linejoin="round"/>
<path d="M25 10.5L28 34" stroke="#4259F7" stroke-width="1.2" stroke-linecap="round" stroke-linejoin="round"/>
<path d="M29 2.5L28.5 33.5" stroke="#4259F7" stroke-width="3" stroke-linecap="round" stroke-linejoin="round"/>
<path d="M29.5 2L34 27.5" stroke="#4259F7" stroke-width="1.2" stroke-linecap="round" stroke-linejoin="round"/>
<path d="M34.5 27V1.5" stroke="#4259F7" stroke-width="3" stroke-linecap="round" stroke-linejoin="round"/>
<path d="M35.5813 0.8513C35.4992 0.530267 35.1723 0.336594 34.8513 0.418718C34.5303 0.500843 34.3366 0.827667 34.4187 1.1487L35.5813 0.8513ZM39.9187 22.6487C40.0008 22.9697 40.3277 23.1634 40.6487 23.0813C40.9697 22.9992 41.1634 22.6723 41.0813 22.3513L39.9187 22.6487ZM34.4187 1.1487L39.9187 22.6487L41.0813 22.3513L35.5813 0.8513L34.4187 1.1487Z" fill="#4259F7"/>
<path d="M41 22L42 5" stroke="#4259F7" stroke-width="3" stroke-linecap="round" stroke-linejoin="round"/>
<path d="M42.5 4.5L46 11.5" stroke="#4259F7" stroke-width="1.2" stroke-linecap="round" stroke-linejoin="round"/>
<path d="M1 13L4 21.5" stroke="#4259F7" stroke-width="1.2" stroke-linecap="round" stroke-linejoin="round"/>
</svg>
