<?xml version="1.0" encoding="UTF-8"?>
<svg width="70px" height="436px" viewBox="0 0 70 436" version="1.1" xmlns="http://www.w3.org/2000/svg" xmlns:xlink="http://www.w3.org/1999/xlink">
    <!-- Generator: Sketch 58 (84663) - https://sketch.com -->
    <title>dots</title>
    <desc>Created with Sketch.</desc>
    <g id="Page-1" stroke="none" stroke-width="1" fill="none" fill-rule="evenodd">
        <g id="dots" transform="translate(34.673130, 218.000000) rotate(90.000000) translate(-34.673130, -218.000000) translate(-183.326870, 183.500000)" fill="#D8D8D8">
            <circle id="Oval" cx="5.36703601" cy="5.36703601" r="5.36703601"></circle>
            <circle id="Oval" cx="34.3490305" cy="5.36703601" r="5.36703601"></circle>
            <circle id="Oval" cx="63.3310249" cy="5.36703601" r="5.36703601"></circle>
            <circle id="Oval" cx="87.482687" cy="5.36703601" r="5.36703601"></circle>
            <circle id="Oval" cx="116.464681" cy="5.36703601" r="5.36703601"></circle>
            <circle id="Oval" cx="145.446676" cy="5.36703601" r="5.36703601"></circle>
            <circle id="Oval" cx="174.42867" cy="5.36703601" r="5.36703601"></circle>
            <circle id="Oval" cx="203.410665" cy="5.36703601" r="5.36703601"></circle>
            <circle id="Oval" cx="232.392659" cy="5.36703601" r="5.36703601"></circle>
            <circle id="Oval" cx="256.544321" cy="5.36703601" r="5.36703601"></circle>
            <circle id="Oval" cx="203.410665" cy="34.3490305" r="5.36703601"></circle>
            <circle id="Oval" cx="232.392659" cy="34.3490305" r="5.36703601"></circle>
            <circle id="Oval" cx="256.544321" cy="34.3490305" r="5.36703601"></circle>
            <circle id="Oval" cx="285.526316" cy="5.36703601" r="5.36703601"></circle>
            <circle id="Oval" cx="314.50831" cy="5.36703601" r="5.36703601"></circle>
            <circle id="Oval" cx="343.490305" cy="5.36703601" r="5.36703601"></circle>
            <circle id="Oval" cx="372.472299" cy="5.36703601" r="5.36703601"></circle>
            <circle id="Oval" cx="401.454294" cy="5.36703601" r="5.36703601"></circle>
            <circle id="Oval" cx="430.436288" cy="5.36703601" r="5.36703601"></circle>
            <circle id="Oval" cx="5.36703601" cy="34.3490305" r="5.36703601"></circle>
            <circle id="Oval" cx="34.3490305" cy="34.3490305" r="5.36703601"></circle>
            <circle id="Oval" cx="63.3310249" cy="34.3490305" r="5.36703601"></circle>
            <circle id="Oval" cx="87.482687" cy="34.3490305" r="5.36703601"></circle>
            <circle id="Oval" cx="116.464681" cy="34.3490305" r="5.36703601"></circle>
            <circle id="Oval" cx="145.446676" cy="34.3490305" r="5.36703601"></circle>
            <circle id="Oval" cx="174.42867" cy="34.3490305" r="5.36703601"></circle>
            <circle id="Oval" cx="285.526316" cy="34.3490305" r="5.36703601"></circle>
            <circle id="Oval" cx="314.50831" cy="34.3490305" r="5.36703601"></circle>
            <circle id="Oval" cx="343.490305" cy="34.3490305" r="5.36703601"></circle>
            <circle id="Oval" cx="372.472299" cy="34.3490305" r="5.36703601"></circle>
            <circle id="Oval" cx="401.454294" cy="34.3490305" r="5.36703601"></circle>
            <circle id="Oval" cx="430.436288" cy="34.3490305" r="5.36703601"></circle>
            <circle id="Oval" cx="203.410665" cy="63.3310249" r="5.36703601"></circle>
            <circle id="Oval" cx="232.392659" cy="63.3310249" r="5.36703601"></circle>
            <circle id="Oval" cx="256.544321" cy="63.3310249" r="5.36703601"></circle>
            <circle id="Oval" cx="5.36703601" cy="63.3310249" r="5.36703601"></circle>
            <circle id="Oval" cx="34.3490305" cy="63.3310249" r="5.36703601"></circle>
            <circle id="Oval" cx="63.3310249" cy="63.3310249" r="5.36703601"></circle>
            <circle id="Oval" cx="87.482687" cy="63.3310249" r="5.36703601"></circle>
            <circle id="Oval" cx="116.464681" cy="63.3310249" r="5.36703601"></circle>
            <circle id="Oval" cx="145.446676" cy="63.3310249" r="5.36703601"></circle>
            <circle id="Oval" cx="174.42867" cy="63.3310249" r="5.36703601"></circle>
            <circle id="Oval" cx="285.526316" cy="63.3310249" r="5.36703601"></circle>
            <circle id="Oval" cx="314.50831" cy="63.3310249" r="5.36703601"></circle>
            <circle id="Oval" cx="343.490305" cy="63.3310249" r="5.36703601"></circle>
            <circle id="Oval" cx="372.472299" cy="63.3310249" r="5.36703601"></circle>
            <circle id="Oval" cx="401.454294" cy="63.3310249" r="5.36703601"></circle>
            <circle id="Oval" cx="430.436288" cy="63.3310249" r="5.36703601"></circle>
        </g>
    </g>
</svg>