<?xml version="1.0" encoding="UTF-8"?>
<svg width="316px" height="301px" viewBox="0 0 316 301" version="1.1" xmlns="http://www.w3.org/2000/svg" xmlns:xlink="http://www.w3.org/1999/xlink">
    <!-- Generator: Sketch 58 (84663) - https://sketch.com -->
    <title>hello-computer</title>
    <desc>Created with Sketch.</desc>
    <g id="Welcome" stroke="none" stroke-width="1" fill="none" fill-rule="evenodd">
        <g id="Desktop-HD-Copy" transform="translate(-651.000000, -104.000000)">
            <g id="hello-computer" transform="translate(651.000000, 104.000000)">
                <path d="M191,2.27373675e-13 C194.313708,2.26764957e-13 197,2.6862915 197,6 L197,27 C197,30.3137085 194.313708,33 191,33 L181.334,33 L173.8585,43.1436996 L166.404,33 L157,33 C153.686292,33 151,30.3137085 151,27 L151,6 C151,2.6862915 153.686292,2.27982394e-13 157,2.27373675e-13 L191,2.27373675e-13 Z" id="Combined-Shape" fill="#D8D8D8"></path>
                <g id="Group-7" transform="translate(84.000000, 56.000000)">
                    <rect id="Rectangle" fill="#494949" x="0" y="0" width="175" height="116" rx="9"></rect>
                    <rect id="Rectangle" fill="#4A4A4A" x="1" y="117" width="175" height="105" rx="9"></rect>
                    <rect id="Rectangle" fill="#666666" x="11" y="13" width="151" height="91"></rect>
                    <rect id="Rectangle" fill="#FBFAF8" x="79" y="46" width="16" height="17"></rect>
                </g>
                <circle id="Oval" fill="#4A4A4A" cx="165.5" cy="12.5" r="2.5"></circle>
                <circle id="Oval" fill="#4A4A4A" cx="181.5" cy="12.5" r="2.5"></circle>
                <path d="M168,19.5948805 L179,19.5948805 C179,24.14795 177.166667,26.4244847 173.5,26.4244847 C169.833333,26.4244847 168,24.14795 168,19.5948805 Z" id="Path-3" fill="#4A4A4A"></path>
                <circle id="Oval" fill="#7E76E1" cx="267" cy="110" r="33"></circle>
                <g id="noun_Waving-Hand_1808220" transform="translate(268.000000, 111.500000) rotate(-25.000000) translate(-268.000000, -111.500000) translate(249.000000, 92.000000)" fill="#FFFFFF" fill-rule="nonzero">
                    <g id="Group">
                        <path d="M38,19.6026316 C38,19.6026316 38,19.6026316 38,19.6026316 L38,19.6026316 L38,19.6026316 L38,19.6026316 L38,19.6026316 L38,19.6026316 C38,18.6276316 37.6356164,17.6526316 36.9068493,16.9342105 L36.6465753,16.6776316 C36.2821918,16.3184211 35.8657534,16.0618421 35.3972603,15.8565789 L35.969863,15.2921053 C36.8027397,14.4710526 37.2191781,13.3934211 37.2712329,12.3157895 C37.2712329,12.3157895 37.2712329,12.3157895 37.2712329,12.2644737 C37.2712329,12.2644737 37.2712329,12.2644737 37.2712329,12.2644737 L37.2712329,12.2644737 C37.2712329,12.2644737 37.2712329,12.2644737 37.2712329,12.2644737 L37.2712329,12.2644737 L37.2712329,12.2644737 L37.2712329,12.2644737 L37.2712329,12.2644737 L37.2712329,12.2644737 C37.2712329,11.1868421 36.8547945,10.0578947 35.969863,9.23684211 C35.6054795,8.87763158 35.1890411,8.62105263 34.7205479,8.41578947 C35.2931507,7.74868421 35.6054795,6.87631579 35.6054795,6.05526316 C35.6054795,6.05526316 35.6054795,6.00394737 35.6054795,6.00394737 C35.6054795,6.00394737 35.6054795,6.00394737 35.6054795,6.00394737 L35.6054795,6.00394737 L35.6054795,6.00394737 L35.6054795,6.00394737 L35.6054795,5.95263158 L35.6054795,5.95263158 C35.6054795,5.02894737 35.2410959,4.05394737 34.5123288,3.33552632 L34.5123288,3.33552632 L33.8356164,2.66842105 C33.1068493,1.95 32.1178082,1.59078947 31.1287671,1.59078947 C30.2958904,1.59078947 29.5150685,1.84736842 28.8383562,2.36052632 C28.630137,1.89868421 28.369863,1.48815789 28.0054795,1.12894737 L28.0054795,1.12894737 C27.2767123,0.410526316 26.2876712,0.0513157895 25.2986301,0.0513157895 C24.309589,0.0513157895 23.3205479,0.410526316 22.5917808,1.12894737 L22.5917808,1.12894737 L13.3260274,10.2118421 C13.5342466,9.54473684 13.690411,8.92894737 13.690411,8.26184211 L13.690411,8.26184211 L13.690411,8.26184211 L13.690411,8.26184211 C13.690411,7.38947368 13.430137,6.51710526 12.909589,5.74736842 C12.3890411,4.97763158 11.6082192,4.41315789 10.6712329,4.00263158 L10.6191781,4.00263158 L10.5150685,3.95131579 L10.5150685,3.95131579 C10.3068493,3.9 10.0986301,3.84868421 9.83835616,3.84868421 C9.10958904,3.84868421 8.38082192,4.25921053 8.01643836,4.92631579 C8.01643836,4.92631579 8.01643836,4.92631579 8.01643836,4.92631579 L8.01643836,4.92631579 L8.01643836,4.92631579 C7.91232877,5.08026316 6.50684932,7.54342105 4.89315068,10.6223684 C4.06027397,12.2131579 3.17534247,13.9578947 2.39452055,15.6513158 L2.39452055,15.6513158 C1.61369863,17.3447368 0.936986301,18.9355263 0.520547945,20.3210526 L0.520547945,20.3210526 C0.468493151,20.4236842 0,21.9118421 0,24.1184211 L0,24.1184211 C0,25.5039474 0.208219178,27.2486842 0.884931507,29.0447368 L0.884931507,29.0447368 C1.56164384,30.8407895 2.65479452,32.7907895 4.47671233,34.5355263 C6.03835616,36.075 7.80821918,37.1526316 9.57808219,37.8197368 C11.3479452,38.4868421 13.1178082,38.7434211 14.7835616,38.7434211 C16.5534247,38.7434211 18.2191781,38.4355263 19.5726027,37.9736842 L19.5726027,37.9736842 C20.9260274,37.5118421 22.0712329,36.8960526 22.8,36.1776316 L22.8,36.1776316 L36.8547945,22.3223684 C37.5835616,21.5013158 37.9479452,20.5776316 38,19.6026316 C38,19.6026316 38,19.6026316 38,19.6026316 Z M10.3589041,35.5618421 C8.90136986,34.9973684 7.44383562,34.1763158 6.09041096,32.8421053 C4.52876712,31.3026316 3.59178082,29.7118421 3.01917808,28.1723684 C2.44657534,26.6842105 2.29041096,25.2473684 2.29041096,24.0157895 C2.29041096,23.0921053 2.39452055,22.2710526 2.49863014,21.7578947 C2.55068493,21.5013158 2.60273973,21.2960526 2.65479452,21.1421053 L2.65479452,21.1421053 C2.65479452,21.0907895 2.70684932,21.0394737 2.70684932,20.9881579 L2.70684932,20.9368421 L2.70684932,20.9368421 L2.70684932,20.9368421 L2.70684932,20.9368421 C3.07123288,19.7565789 3.69589041,18.2171053 4.47671233,16.575 C5.62191781,14.1118421 6.97534247,11.4947368 8.06849315,9.44210526 L8.06849315,9.44210526 C8.64109589,8.41578947 9.10958904,7.59473684 9.42191781,6.97894737 C9.57808219,6.67105263 9.73424658,6.46578947 9.83835616,6.26052632 L9.83835616,6.26052632 C9.83835616,6.20921053 9.89041096,6.20921053 9.89041096,6.15789474 C10.3589041,6.41447368 10.6712329,6.67105263 10.8794521,6.97894737 C11.139726,7.33815789 11.2438356,7.69736842 11.2438356,8.15921053 L11.2438356,8.15921053 C11.2438356,8.72368421 11.0876712,9.39078947 10.6712329,10.1605263 L10.6712329,10.1605263 L8.17260274,15.1381579 C8.06849315,15.2921053 8.06849315,15.4973684 8.06849315,15.6513158 C8.06849315,16.0105263 8.22465753,16.3697368 8.5890411,16.6263158 C8.79726027,16.7802632 9.05753425,16.8315789 9.26575342,16.8315789 C9.57808219,16.8315789 9.89041096,16.7289474 10.0986301,16.4723684 L10.0986301,16.4723684 L24.1534247,2.61710526 L24.1534247,2.61710526 C24.4657534,2.36052632 24.7780822,2.20657895 25.1945205,2.20657895 C25.5589041,2.20657895 25.9232877,2.36052632 26.2356164,2.61710526 C26.4958904,2.87368421 26.6520548,3.23289474 26.6520548,3.64342105 C26.6520548,4.00263158 26.4958904,4.36184211 26.2356164,4.66973684 L26.2356164,4.66973684 L15.7726027,15.0868421 C15.5643836,15.2921053 15.4082192,15.6 15.4082192,15.9078947 C15.4082192,16.2157895 15.5123288,16.5236842 15.7726027,16.7289474 C15.9808219,16.9342105 16.2931507,17.0881579 16.6054795,17.0881579 C16.9178082,17.0881579 17.230137,16.9855263 17.4383562,16.7289474 L27.9534247,6.36315789 L30.0876712,4.25921053 C30.4,4.00263158 30.7123288,3.84868421 31.1287671,3.84868421 C31.4931507,3.84868421 31.8575342,4.00263158 32.169863,4.25921053 L32.8465753,4.92631579 C33.1068493,5.23421053 33.2630137,5.54210526 33.2630137,5.95263158 C33.2630137,6.31184211 33.1068493,6.67105263 32.8465753,6.97894737 L30.6082192,9.18552632 L26.0273973,13.65 L20.1972603,19.3973684 C19.9890411,19.6026316 19.8328767,19.9105263 19.8328767,20.2184211 C19.8328767,20.5263158 19.9369863,20.8342105 20.1972603,21.0394737 C20.4054795,21.2447368 20.7178082,21.3986842 21.030137,21.3986842 C21.3424658,21.3986842 21.6547945,21.2960526 21.8630137,21.0394737 L21.8630137,21.0394737 L22.4356164,20.475 C22.4356164,20.475 22.4356164,20.475 22.4356164,20.475 L32.2219178,10.8276316 L32.2219178,10.8276316 C32.5342466,10.5710526 32.8465753,10.4171053 33.2630137,10.4171053 C33.6273973,10.4171053 33.9917808,10.5710526 34.3041096,10.8276316 C34.3041096,10.8276316 34.3041096,10.8276316 34.3041096,10.8276316 C34.7205479,11.2381579 34.8767123,11.7 34.8767123,12.2131579 C34.8767123,12.7263158 34.6684932,13.2394737 34.3041096,13.5986842 L34.3041096,13.5986842 L31.2328767,16.6776316 C31.2328767,16.6776316 31.2328767,16.6776316 31.2328767,16.6776316 L23.6328767,24.1184211 L23.6328767,24.1184211 L22.8,24.9394737 L22.8,24.9394737 C22.5917808,25.1447368 22.4356164,25.4526316 22.4356164,25.7605263 C22.4356164,26.0684211 22.539726,26.3763158 22.8,26.5815789 C23.0082192,26.7868421 23.3205479,26.9407895 23.6328767,26.9407895 C23.9452055,26.9407895 24.2575342,26.8381579 24.4657534,26.5815789 L24.9863014,26.0684211 L31.2328767,19.9105263 L32.8465753,18.3197368 L32.8465753,18.3197368 C33.1589041,18.0631579 33.4712329,17.9092105 33.8876712,17.9092105 C34.2520548,17.9092105 34.6164384,18.0631579 34.9287671,18.3197368 L34.9287671,18.3197368 L35.1890411,18.5763158 L35.1890411,18.5763158 C35.4493151,18.8842105 35.6054795,19.1921053 35.6054795,19.6026316 C35.6054795,19.9618421 35.4493151,20.3210526 35.1890411,20.6289474 L35.1890411,20.6289474 L21.1342466,34.4842105 L21.1342466,34.4842105 C20.9780822,34.6381579 20.6657534,34.8947368 20.2493151,35.1 C19.8328767,35.3052632 19.3643836,35.5618421 18.7917808,35.7157895 L18.7917808,35.7157895 C17.6465753,36.075 16.2410959,36.3315789 14.7315068,36.3315789 L14.7315068,36.3315789 C13.3260274,36.3315789 11.8164384,36.1263158 10.3589041,35.5618421 Z" id="Shape"></path>
                    </g>
                </g>
                <circle id="Oval" fill="#7E76E1" cx="161" cy="198" r="3"></circle>
                <path d="M161,198 L118.5,143" id="Line-4" stroke="#7E76E1" stroke-linecap="square"></path>
                <rect id="Rectangle" stroke="#7E76E1" x="0.5" y="86.5" width="119" height="56"></rect>
                <text id="hello!" font-family="AmericanTypewriter, American Typewriter" font-size="24" font-weight="normal" letter-spacing="3.24" fill="#7E76E1">
                    <tspan x="19" y="123">hello!</tspan>
                </text>
                <rect id="Rectangle" fill="#666666" x="127" y="214" width="18" height="18"></rect>
                <rect id="Rectangle" fill="#666666" x="127" y="190" width="18" height="18"></rect>
                <rect id="Rectangle" fill="#666666" x="153" y="214" width="18" height="18"></rect>
                <rect id="Rectangle" stroke="#FFFFFF" x="153.5" y="189.5" width="17" height="17"></rect>
                <rect id="Rectangle" fill="#FBFAF8" x="128" y="239" width="92" height="18"></rect>
                <rect id="Rectangle" fill="#666666" x="103" y="239" width="18" height="18"></rect>
                <rect id="Rectangle" fill="#666666" x="103" y="214" width="18" height="18"></rect>
                <rect id="Rectangle" fill="#666666" x="103" y="190" width="18" height="18"></rect>
                <rect id="Rectangle" fill="#666666" x="227" y="239" width="18" height="18"></rect>
                <rect id="Rectangle" fill="#666666" x="227" y="214" width="18" height="18"></rect>
                <rect id="Rectangle" fill="#666666" x="227" y="190" width="18" height="18"></rect>
                <rect id="Rectangle" fill="#666666" x="202" y="214" width="18" height="18"></rect>
                <rect id="Rectangle" fill="#666666" x="202" y="190" width="18" height="18"></rect>
                <rect id="Rectangle" fill="#666666" x="178" y="214" width="18" height="18"></rect>
                <rect id="Rectangle" fill="#666666" x="178" y="190" width="18" height="18"></rect>
                <g id="noun_click_337344" transform="translate(148.000000, 244.000000)">
                    <polygon id="Path" fill="#000000" points="0.5625 23.5 0.5625 23.5 0.4375 23.5 0.4375 23.5 0.4375 23.5 0.4375 23.5 0.5625 23.5"></polygon>
                    <polygon id="Path" fill="#000000" points="37.577 27.5 37.577 27.5 37.423 27.5 37.423 27.5 37.423 27.5 37.423 27.5 37.577 27.5"></polygon>
                    <path d="M53.7485351,19.386818 C51.774012,19.386818 50.4956838,21.1177591 50.4956838,23.2536067 L50.4956838,27.9705602 C50.3419784,27.9350787 50.181318,27.8995972 50.0227441,27.8648114 L50.0227441,20.7573782 C50.0227441,18.6215306 48.4210087,16.8912852 46.4437035,16.8912852 C44.4684848,16.8912852 42.8695314,18.6215306 42.8695314,20.7573782 L42.8695314,26.4657268 C42.7123485,26.4365068 42.5523836,26.4086781 42.3958962,26.3815452 L42.3958962,18.5874405 C42.3958962,16.4515928 40.7962473,14.7206518 38.8189421,14.7206518 C36.8437234,14.7206518 35.2440745,16.4515928 35.2440745,18.5874405 L35.2440745,25.713658 C35.0792411,25.7435738 34.9241447,25.779751 34.7711348,25.8187111 L34.7711348,3.86678872 C34.7711348,1.73094105 33.1714859,0 31.1934852,0 C29.218962,0 27.6172266,1.73094105 27.6172266,3.86678872 L27.6172266,32.8336141 L27.6172266,32.8336141 L27.3390268,32.7758696 L27.0962974,31.1068473 C25.8311838,25.3177957 19.1557792,24.2853534 20.0891396,27.8028927 C20.9703375,31.1270231 22.5477305,39.3629074 24.018712,44.8381911 C24.018712,44.8381911 27.4732582,51.8127426 27.9844503,52.7547419 C28.4956425,53.6967411 28.9685822,57 32.2548175,57 L49.7049008,57 C52.0236963,57 52.8729012,55.1772245 53.4272143,52.6928231 L56.4269038,38.1614061 L57,23.252911 C57.0027775,21.1177591 55.7258403,19.386818 53.7485351,19.386818 Z" id="Path" fill="#D8D8D8"></path>
                </g>
                <circle id="Oval" fill="#FFFFFF" cx="314" cy="223" r="2"></circle>
                <circle id="Oval" fill="#FFFFFF" cx="314" cy="236" r="2"></circle>
                <circle id="Oval" fill="#FFFFFF" cx="314" cy="249" r="2"></circle>
                <circle id="Oval" fill="#FFFFFF" cx="302" cy="223" r="2"></circle>
                <circle id="Oval" fill="#FFFFFF" cx="302" cy="236" r="2"></circle>
                <circle id="Oval" fill="#FFFFFF" cx="302" cy="249" r="2"></circle>
                <circle id="Oval" fill="#FFFFFF" cx="288" cy="223" r="2"></circle>
                <circle id="Oval" fill="#FFFFFF" cx="288" cy="236" r="2"></circle>
                <circle id="Oval" fill="#FFFFFF" cx="288" cy="249" r="2"></circle>
                <circle id="Oval" fill="#FFFFFF" cx="276" cy="223" r="2"></circle>
                <circle id="Oval" fill="#FFFFFF" cx="276" cy="236" r="2"></circle>
                <circle id="Oval" fill="#FFFFFF" cx="276" cy="249" r="2"></circle>
                <circle id="Oval" fill="#FFFFFF" cx="262" cy="223" r="2"></circle>
                <circle id="Oval" fill="#FFFFFF" cx="262" cy="236" r="2"></circle>
                <circle id="Oval" fill="#FFFFFF" cx="262" cy="249" r="2"></circle>
                <circle id="Oval" fill="#FFFFFF" cx="250" cy="223" r="2"></circle>
                <circle id="Oval" fill="#FFFFFF" cx="250" cy="236" r="2"></circle>
                <circle id="Oval" fill="#FFFFFF" cx="250" cy="249" r="2"></circle>
                <circle id="Oval" fill="#FFFFFF" cx="236" cy="223" r="2"></circle>
                <circle id="Oval" fill="#FFFFFF" cx="236" cy="236" r="2"></circle>
                <circle id="Oval" fill="#FFFFFF" cx="236" cy="249" r="2"></circle>
                <circle id="Oval" fill="#FFFFFF" cx="224" cy="223" r="2"></circle>
                <circle id="Oval" fill="#FFFFFF" cx="224" cy="236" r="2"></circle>
                <circle id="Oval" fill="#FFFFFF" cx="224" cy="249" r="2"></circle>
            </g>
        </g>
    </g>
</svg>