<?xml version="1.0" encoding="UTF-8"?>
<svg width="83px" height="89px" viewBox="0 0 83 89" version="1.1" xmlns="http://www.w3.org/2000/svg" xmlns:xlink="http://www.w3.org/1999/xlink">
    <!-- Generator: Sketch 58 (84663) - https://sketch.com -->
    <title>noun_start up_2470912</title>
    <desc>Created with Sketch.</desc>
    <g id="Welcome" stroke="none" stroke-width="1" fill="none" fill-rule="evenodd">
        <g id="noun_start-up_2470912" transform="translate(-1.000000, 0.000000)" fill="#463EA9">
            <g id="Group">
                <path d="M33.35,44.06 L27.26,50.39 C27.0323487,50.6211653 26.6876242,50.6919461 26.3873031,50.5691871 C26.086982,50.4464281 25.890542,50.1544414 25.89,49.83 L25.89,46.24 C25.89,44.06 25.7,41.11 26.97,39.34 L29.04,36.64 C30.0213544,39.315032 31.4556057,41.801293 33.28,43.99 C33.3007589,44.0157731 33.3242269,44.0392411 33.35,44.06 Z" id="Path"></path>
                <path d="M58.11,46.24 L58.11,49.83 C58.109458,50.1544414 57.913018,50.4464281 57.6126969,50.5691871 C57.3123758,50.6919461 56.9676513,50.6211653 56.74,50.39 L50.65,44.06 C50.6757731,44.0392411 50.6992411,44.0157731 50.72,43.99 C52.5423101,41.79984 53.9763443,39.3139552 54.96,36.64 L57.03,39.34 C58.3,41.11 58.11,44.06 58.11,46.24 Z" id="Path"></path>
                <path d="M49.42,7.03 L34.57,7.03 C35.976744,4.90193273 37.6692412,2.97726399 39.6,1.31 C40.9945785,0.163397282 43.0054215,0.163397282 44.4,1.31 C46.3272973,2.97786705 48.0164111,4.90251474 49.42,7.03 L49.42,7.03 Z" id="Path"></path>
                <path d="M55.76,23.6 C55.1110035,18.4413991 53.3835646,13.4771417 50.69,9.03 C50.49,8.69 50.29,8.35 50.08,8.03 L33.91,8.03 C33.7,8.35 33.5,8.69 33.3,9.03 C30.6054423,13.4758274 28.8810844,18.441024 28.24,23.6 C27.8325984,27.7028515 28.3520527,31.844816 29.76,35.72 C30.7110357,38.4993075 32.1614805,41.0816415 34.04,43.34 C34.5303478,43.8992673 35.0654518,44.4176492 35.64,44.89 L35.672,44.89 C34.8435729,44.8993889 34.1796112,45.5785729 34.189,46.407 C34.1983889,47.2354271 34.8775729,47.8993888 35.706,47.8900984 L48.294,47.8900984 C49.1224271,47.8993888 49.8016111,47.2354271 49.811,46.407 C49.8203888,45.5785729 49.1564271,44.8993889 48.328,44.89 L48.39,44.89 C48.9499934,44.4118335 49.4746937,43.8938173 49.96,43.34 C51.8344237,41.078825 53.2844279,38.4972754 54.24,35.72 C55.6479473,31.844816 56.1674016,27.7028515 55.76,23.6 Z M42,13.1109999 C44.5042077,13.1105955 46.7620411,14.618836 47.7205468,16.9323449 C48.6790524,19.2458538 48.1494403,21.9089557 46.378698,23.679698 C44.6079557,25.4504403 41.9448538,25.9800524 39.6313449,25.0215468 C37.317836,24.0630411 35.8095955,21.8052077 35.8099999,19.301 C35.8099999,15.8823574 38.5813574,13.1109999 42,13.1109999 L42,13.1109999 Z" id="Shape" fill-rule="nonzero"></path>
                <path d="M39.839,32.22 C39.819,33.248 39.326,57.495 36.468,64.632 L36.26,65.168 C35.572,66.959 34.631,69.411 32.436,69.411 C31.8837153,69.411 31.436,68.9632847 31.436,68.411 C31.436,67.8587153 31.8837153,67.411 32.436,67.411 C33.116,67.411 33.719,66.14 34.148,65.073 C32.7561995,65.0345411 31.3677532,65.228883 30.04,65.648 C28.0990715,66.4219074 26.4679781,67.8150159 25.4,69.611 C26.3420361,69.6538315 27.2720446,69.8399681 28.158,70.163 C28.6632041,70.3643678 28.9148546,70.9325694 28.7244602,71.4420105 C28.5340658,71.9514515 27.9714397,72.2153319 27.458,72.036 C26.376316,71.6403903 25.2179268,71.499741 24.073,71.625 C23.3219209,71.6981807 22.5855159,71.8804292 21.887,72.166 C19.9794979,72.9426904 18.358571,74.2897955 17.246,76.023 C16.2490368,77.4602846 15.8400543,79.22467 16.103,80.954 C16.1759947,81.3078282 16.0524647,81.673517 15.7798594,81.9106012 C15.507254,82.1476854 15.1279655,82.2192966 14.7876828,82.0979282 C14.4474002,81.9765597 14.1990399,81.6810853 14.138,81.325 C13.8830188,79.8688339 14.0257009,78.3708451 14.551,76.989 C14.24,77.114 13.886,77.275 13.482,77.473 L13.482,77.473 C13.271,77.573 13.046,77.69 12.802,77.817 C9.545,79.517 7.928,83.258 6.629,86.267 L6.242,87.156 C6.10366279,87.4618368 6.1323741,87.8173281 6.318,88.097 C6.50194481,88.3830317 6.81994472,88.5544948 7.16,88.5510524 L76.823,88.5510524 C77.1613256,88.5510524 77.4765601,88.3793613 77.6608159,88.0956113 C77.8450718,87.8118613 77.8733604,87.4541867 77.736,87.145 L77.336,86.257 C75.961,83.157 74.249,79.3 71.024,77.618 C70.733,77.466 70.464,77.337 70.204,77.218 C69.944,77.099 69.724,77.006 69.498,76.918 L69.398,76.877 C69.168,76.79 68.947,76.713 68.734,76.652 C67.4451092,76.3356799 66.1123635,76.237321 64.791,76.361 C64.246906,76.3575224 63.7976466,75.9348696 63.761,75.392 C63.7526523,75.1265803 63.8502172,74.8687394 64.0321814,74.6753321 C64.2141455,74.4819249 64.4655646,74.3688353 64.731,74.361 C65.031,74.353 65.321,74.346 65.608,74.342 C65.796,74.342 65.986,74.342 66.172,74.342 C66.288,74.342 66.404,74.342 66.519,74.349 C66.9851787,74.356064 67.4505864,74.3894505 67.913,74.449 C67.2106342,72.269932 65.4731503,70.5811486 63.275,69.941 C62.3627063,69.6231164 61.3879555,69.5264639 60.431,69.659 C60.836135,70.7825244 60.9707746,71.9857158 60.824,73.171 C60.7624489,73.6717532 60.3375213,74.048228 59.833,74.049 C59.7915288,74.0492922 59.7500898,74.0466187 59.709,74.041 C59.1608841,73.9738502 58.7709497,73.4751281 58.838,72.927 C58.9879617,71.7531623 58.7595565,70.5620924 58.186,69.527 C58.1630729,69.4911274 58.142044,69.4540765 58.123,69.416 C57.1651065,67.8378399 55.6533742,66.6733781 53.883,66.15 C52.5387394,65.7218139 51.125175,65.5538153 49.718,65.655 C50.311,66.948 50.818,67.41 51.564,67.41 C52.1162847,67.41 52.564,67.8577153 52.564,68.41 C52.564,68.9622847 52.1162847,69.41 51.564,69.41 C49.049,69.41 48.087,67.01 47.57,65.717 C44.712,58.58 44.183,33.292 44.161,32.217 C44.151,31.673 44.161,28.384 44.161,28.384 L39.833,28.384 C39.833,28.384 39.849,31.694 39.839,32.22 Z M50.329,76.764 C53.0218856,75.2951674 56.3717805,75.8752358 58.414,78.164 C59.8158185,79.8069349 60.3837648,82.0034858 59.954,84.12 C59.8389683,84.5598789 59.441671,84.866788 58.987,84.867 C58.9013508,84.8666441 58.8160611,84.8558989 58.733,84.835 C58.4763798,84.7678052 58.2569732,84.6014006 58.1230657,84.3724075 C57.9891582,84.1434144 57.9517235,83.8705988 58.019,83.614 C58.2852485,82.1601193 57.8933915,80.6630058 56.949,79.526 C55.5595458,77.9466579 53.279053,77.5044503 51.4,78.45 C50.9338685,78.7405585 50.3206346,78.6007615 50.0264892,78.1368852 C49.7323438,77.6730088 49.8674064,77.0587148 50.329,76.761 L50.329,76.764 Z M40.466,75.822 C40.1282413,76.2569989 39.5023396,76.3370249 39.066,76.001 C38.134756,75.3960648 36.9862353,75.2266707 35.92,75.537 C34.4129208,76.0266492 33.4265236,77.472132 33.52,79.054 C33.6079533,79.596413 33.241771,80.108175 32.7,80.2 C32.6462044,80.2096055 32.5916457,80.2142916 32.537,80.2140128 C32.0475403,80.2136129 31.6302923,79.8589944 31.551,79.376 C31.302543,76.8427858 32.8317123,74.4721798 35.242,73.654 C36.9516927,73.1045112 38.8200206,73.3868512 40.291,74.417 C40.5007853,74.5799226 40.637133,74.8196141 40.6699635,75.0831967 C40.7027941,75.3467793 40.6294099,75.6125941 40.466,75.822 Z" id="Shape" fill-rule="nonzero"></path>
                <path d="M67.532,56.3 C70.451,55.288 73.974,56.142 73.598,60.948 C73.5723217,61.4560236 73.4433635,61.9534824 73.219,62.41 C72.4687378,63.630438 71.1967909,64.4358757 69.7727472,64.592278 C68.3487034,64.7486804 66.9322634,64.2385077 65.935,63.21 C64.9433542,62.2029645 64.5567424,60.7473728 64.918,59.381 C65.3606611,58.0560361 66.296849,56.952595 67.532,56.3 L67.532,56.3 Z" id="Path"></path>
                <path d="M24.7,58.189 C24.074,59.936 23.195,61.55 21.339,61.55 C19.482771,61.55 17.978,60.045229 17.978,58.189 C17.951116,56.2551394 19.4136006,54.6246932 21.339,54.442 C23.2,54.442 25.406,56.221 24.7,58.189 Z" id="Path"></path>
                <path d="M5.149,67.916 C6.155,69.016 6.971,70.248 6.273,71.567 C5.93813846,72.2001784 5.36540444,72.6743513 4.68085436,72.8851552 C3.99630429,73.0959591 3.25604336,73.0261167 2.623,72.691 C1.23591564,71.9840067 0.62614608,70.3289179 1.223,68.891 C1.922,67.577 4.016,66.676 5.149,67.916 Z" id="Path"></path>
                <path d="M81.673,70.765 C82.695,71.883 83.523,73.132 82.815,74.471 C82.1066224,75.8099269 80.447025,76.3211921 79.108,75.613 C77.70372,74.8937192 77.0864363,73.2171784 77.689,71.759 C78.4,70.421 80.523,69.506 81.673,70.765 Z" id="Path"></path>
                <path d="M55.519,54.607 C56.541,55.725 57.369,56.975 56.661,58.314 C55.9526224,59.6529269 54.293025,60.1641921 52.954,59.456 C51.5478917,58.7373131 50.9301687,57.0587085 51.535,55.6 C52.243,54.263 54.369,53.348 55.519,54.607 Z" id="Path"></path>
            </g>
        </g>
    </g>
</svg>