<?xml version="1.0" encoding="UTF-8"?>
<svg width="34px" height="51px" viewBox="0 0 34 51" version="1.1" xmlns="http://www.w3.org/2000/svg" xmlns:xlink="http://www.w3.org/1999/xlink">
    <!-- Generator: Sketch 58 (84663) - https://sketch.com -->
    <title>Group 32</title>
    <desc>Created with Sketch.</desc>
    <g id="Welcome" stroke="none" stroke-width="1" fill="none" fill-rule="evenodd">
        <g id="noun_start-up_2470912" transform="translate(-25.000000, 0.000000)" fill="#463EA9">
            <g id="Group">
                <g id="Group-32" transform="translate(25.879922, 0.450048)">
                    <g id="Group-31" transform="translate(0.000000, 7.579952)">
                        <path d="M7.4700775,36.03 L1.3800775,42.36 C1.15242617,42.5911653 0.807701656,42.6619461 0.507380593,42.5391871 C0.207059529,42.4164281 0.010619545,42.1244414 0.0100775023,41.8 L0.0100775023,38.21 C0.0100775023,36.03 -0.179922498,33.08 1.0900775,31.31 L3.1600775,28.61 C4.14143194,31.285032 5.5756832,33.771293 7.4000775,35.96 C7.4208364,35.9857731 7.44430443,36.0092411 7.4700775,36.03 Z" id="Path"></path>
                        <path d="M32.2300775,38.21 L32.2300775,41.8 C32.2295355,42.1244414 32.0330955,42.4164281 31.7327744,42.5391871 C31.4324533,42.6619461 31.0877288,42.5911653 30.8600775,42.36 L24.7700775,36.03 C24.7958506,36.0092411 24.8193186,35.9857731 24.8400775,35.96 C26.6623876,33.76984 28.0964218,31.2839552 29.0800775,28.61 L31.1500775,31.31 C32.4200775,33.08 32.2300775,36.03 32.2300775,38.21 Z" id="Path"></path>
                        <path d="M29.8800775,15.57 C29.231081,10.4113991 27.5036421,5.44714169 24.8100775,1 C24.6100775,0.66 24.4100775,0.32 24.2000775,5.89750471e-13 L8.0300775,5.89750471e-13 C7.8200775,0.32 7.6200775,0.66 7.4200775,1 C4.72551984,5.44582738 3.0011619,10.411024 2.3600775,15.57 C1.9526759,19.6728515 2.47213019,23.814816 3.8800775,27.69 C4.83111316,30.4693075 6.28155796,33.0516415 8.1600775,35.31 C8.65042535,35.8692673 9.18552926,36.3876492 9.7600775,36.86 L9.7920775,36.86 C8.96365039,36.8693889 8.29968868,37.5485729 8.30907752,38.377 C8.31846637,39.2054271 8.99765039,39.8693888 9.8260775,39.8600984 L22.4140775,39.8600984 C23.2425046,39.8693888 23.9216886,39.2054271 23.9310775,38.377 C23.9404663,37.5485729 23.2765046,36.8693889 22.4480775,36.86 L22.5100775,36.86 C23.0700709,36.3818335 23.5947712,35.8638173 24.0800775,35.31 C25.9545012,33.048825 27.4045054,30.4672754 28.3600775,27.69 C29.7680248,23.814816 30.2874791,19.6728515 29.8800775,15.57 Z M16.1200775,5.08099992 C18.6242852,5.08059554 20.8821186,6.58883601 21.8406243,8.90234489 C22.7991299,11.2158538 22.2695178,13.8789557 20.4987755,15.649698 C18.7280332,17.4204403 16.0649313,17.9500524 13.7514224,16.9915468 C11.4379135,16.0330411 9.92967304,13.7752077 9.93007742,11.271 C9.93007742,7.8523574 12.7014349,5.08099992 16.1200775,5.08099992 L16.1200775,5.08099992 Z" id="Shape" fill-rule="nonzero"></path>
                    </g>
                    <path d="M23.5400775,6.57995204 L8.6900775,6.57995204 C10.0968215,4.45188477 11.7893187,2.52721603 13.7200775,0.859952039 C15.114656,-0.28665068 17.125499,-0.28665068 18.5200775,0.859952039 C20.4473748,2.52781909 22.1364886,4.45246678 23.5400775,6.57995204 L23.5400775,6.57995204 Z" id="Path"></path>
                </g>
            </g>
        </g>
    </g>
</svg>