<?xml version="1.0" encoding="UTF-8"?>
<svg width="71px" height="72px" viewBox="0 0 71 72" version="1.1" xmlns="http://www.w3.org/2000/svg" xmlns:xlink="http://www.w3.org/1999/xlink">
    <!-- Generator: Sketch 56.1 (81669) - https://sketch.com -->
    <title>toasty</title>
    <desc>Created with Sketch.</desc>
    <g id="Page-1" stroke="none" stroke-width="1" fill="none" fill-rule="evenodd">
        <g id="Artboard" transform="translate(-10.000000, -46.000000)">
            <g id="Group-12" transform="translate(10.000000, 46.000000)">
                <g id="Group-11" fill="#463EA9">
                    <g id="Group-5">
                        <rect id="Rectangle" x="0" y="0" width="71" height="72" rx="8"></rect>
                    </g>
                </g>
                <g id="noun_Toaster_2087153" transform="translate(10.000000, 7.000000)" fill="#FFFFFF">
                    <path d="M48.6,42.6 C50,42.6 50,44.6 48.6,44.6 L46,44.6 C44.8,44.6 44.8,42.6 46,42.6 L48.6,42.6 Z M5.6,53.4 C6,54.4 6.4,55.4 6.8,55.4 L6.8,55.4 L10.4,55.4 L10.4,55.4 C10.8,55.4 11.2,54.4 11.6,53.4 L5.6,53.4 Z M8.8,49.2 C8.8,50.6 6.8,50.6 6.8,49.2 C6.8,48.4 6.8,47.6 6.8,46.6 C6.8,45.4 8.8,45.4 8.8,46.6 C8.8,47.6 8.8,48.4 8.8,49.2 Z M4,49.2 C4,50.6 2,50.6 2,49.2 L2,46.6 C2,45.4 4,45.4 4,46.6 L4,49.2 Z M45.6,53.4 L39.6,53.4 C40,54.4 40.4,55.4 40.8,55.4 L40.8,55.4 L44.4,55.4 L44.4,55.4 C44.8,55.4 45.2,54.4 45.6,53.4 Z M14,29.6 C12.8,29.6 12.8,27.6 14,27.6 C15,27.6 16.4,27.6 17.2,27.6 C18.6,27.6 18.6,29.6 17.2,29.6 C16.4,29.6 15,29.6 14,29.6 Z M7.6,24.6 C9.8,24.6 11.6,26.4 11.6,28.6 C11.6,30.8 9.8,32.4 7.6,32.4 C5.6,32.4 3.8,30.8 3.8,28.6 C3.8,26.4 5.6,24.6 7.6,24.6 Z M7.6,26.6 C8.8,26.6 9.6,27.6 9.6,28.6 C9.6,29.6 8.8,30.4 7.6,30.4 C6.6,30.4 5.8,29.6 5.8,28.6 C5.8,27.6 6.6,26.6 7.6,26.6 Z M48.4,49.2 C48.4,50.6 46.4,50.6 46.4,49.2 L46.4,46.6 C46.4,45.4 48.4,45.4 48.4,46.6 L48.4,49.2 Z M43.4,49.2 C43.4,50.6 41.4,50.6 41.4,49.2 C41.4,48.4 41.4,47.6 41.4,46.6 C41.4,45.4 43.4,45.4 43.4,46.6 C43.4,47.6 43.4,48.4 43.4,49.2 Z M38.6,49.2 C38.6,50.6 36.6,50.6 36.6,49.2 C36.6,48.4 36.6,47.6 36.6,46.6 C36.6,45.4 38.6,45.4 38.6,46.6 C38.6,47.6 38.6,48.4 38.6,49.2 Z M33.6,49.2 C33.6,50.6 31.6,50.6 31.6,49.2 C31.6,48.4 31.6,47.6 31.6,46.6 C31.6,45.4 33.6,45.4 33.6,46.6 C33.6,47.6 33.6,48.4 33.6,49.2 Z M28.6,49.2 C28.6,50.6 26.6,50.6 26.6,49.2 C26.6,48.4 26.6,47.6 26.6,46.6 C26.6,45.4 28.6,45.4 28.6,46.6 C28.6,47.6 28.6,48.4 28.6,49.2 Z M23.6,49.2 C23.6,50.6 21.6,50.6 21.6,49.2 C21.6,48.4 21.6,47.6 21.6,46.6 C21.6,45.4 23.6,45.4 23.6,46.6 C23.6,47.6 23.6,48.4 23.6,49.2 Z M18.8,49.2 C18.8,50.6 16.8,50.6 16.8,49.2 C16.8,48.4 16.8,47.6 16.8,46.6 C16.8,45.4 18.8,45.4 18.8,46.6 C18.8,47.6 18.8,48.4 18.8,49.2 Z M13.8,49.2 C13.8,50.6 11.8,50.6 11.8,49.2 C11.8,48.4 11.8,47.6 11.8,46.6 C11.8,45.4 13.8,45.4 13.8,46.6 C13.8,47.6 13.8,48.4 13.8,49.2 Z M8.6,22.2 C7.4,22.2 7.4,20.2 8.6,20.2 L11.4,20.2 L11.4,17.8 L7.4,17.8 C3.4,17.8 0,21.2 0,25.2 L0,42.6 L43.2,42.6 C44.4,42.6 44.4,44.6 43.2,44.6 L0,44.6 L0,48.8 C0,50.2 1.2,51.4 2.6,51.4 L48.6,51.4 C50.2,51.4 51.2,50.2 51.2,48.8 L51.2,25.2 C51.2,21.2 48,17.8 43.8,17.8 L40,17.8 L40,20.2 L42.6,20.2 C43.8,20.2 43.8,22.2 42.6,22.2 L8.6,22.2 Z M13.4,20.2 L38,20.2 L38,11.2 C38,9.6 41.2,8.8 41.2,6.8 C41.2,-1 10.2,-1 10.2,6.8 C10.2,8.8 13.4,9.6 13.4,11.2 L13.4,20.2 Z" id="Shape"></path>
                </g>
            </g>
        </g>
    </g>
</svg>